inDegrees=yes
name=ik_S48_A10_T02
DataType=double
version=3
OpenSimVersion=4.3-2021-08-27-4bc7ad9
endheader
time	pelvis_tilt	pelvis_list	pelvis_rotation	pelvis_tx	pelvis_ty	pelvis_tz	hip_flexion_r	hip_adduction_r	hip_rotation_r	knee_angle_r	knee_angle_r_beta	ankle_angle_r	subtalar_angle_r	mtp_angle_r	hip_flexion_l	hip_adduction_l	hip_rotation_l	knee_angle_l	knee_angle_l_beta	ankle_angle_l	subtalar_angle_l	mtp_angle_l	lumbar_extension	lumbar_bending	lumbar_rotation	arm_flex_r	arm_add_r	arm_rot_r	elbow_flex_r	pro_sup_r	wrist_flex_r	wrist_dev_r	arm_flex_l	arm_add_l	arm_rot_l	elbow_flex_l	pro_sup_l	wrist_flex_l	wrist_dev_l
0	0	0	0	0	0.9399999999999999	0	0	0	0	0	0	0	0	0	0	0	0	0	0	0	0	0	0	0	0	0	0	0	0	89.99999999963507	0	0	0	0	0	0	89.99999999869995	0	0
0.02	1.05111278796099	0.4730479754649395	35.06351094492319	0	0.9399999999999999	0	1.301688600052205	-0.6114804791796445	-0.4365972260124894	2.028874240817278	0.03541053561116184	0	0	0	1.301688600052205	-0.6114804791796445	-0.4365972260124894	2.028874240817278	0.03541053561116184	0	0	0	1.12058765362087	2.016896249279403	15.6600922735472	14.9485570547251	0.3239170437186888	0.452628591494273	10.59812898029953	105.9540814389533	0	0	10.2699800016816	-3.015263265539969	-5.72374491320598	11.8963484824237	99.89326480650907	0	0
0.04	1.058749398924839	0.4565166297019544	35.0509285026691	0	0.9399999999999999	0	1.314480277677459	-0.6182072026943135	-0.4409141391025138	2.049122477439882	0.03576393400794917	0	0	0	1.314480277677459	-0.6182072026943135	-0.4409141391025138	2.049122477439882	0.03576393400794917	0	0	0	1.117107875739926	1.999567350794396	15.69534441024972	14.98301954931715	0.2389596677330945	0.2678240139579096	10.41756768443319	105.7880450072185	0	0	10.26156439478559	-3.011182876147096	-5.698804035951885	11.83825991928401	99.95793676757721	0	0
0.06	1.016645473696945	0.4605071238054941	35.20645942478285	0	0.9399999999999999	0	2.646292144672625	-1.276358376710073	-0.913081620862935	3.753936346897758	0.06551854916365389	0	0	0	2.646292144672625	-1.276358376710073	-0.913081620862935	3.753936346897758	0.06551854916365389	0	0	0	1.116081444323958	1.956121345574315	15.53630661303553	15.0551876373285	0.1983273783853673	0.2122062652668113	10.38812835248902	105.8383063519135	0	0	10.30728042307876	-3.013722461353114	-5.709127869648031	11.81981272154946	99.99327779895096	0	0
0.08	1.014181575779798	0.4559409716281865	35.25287334419627	0	0.9399999999999999	0	2.883707906661026	-1.375353067662242	-1.003979311046298	3.864903090662993	0.06745528420257414	0	0	0	2.883707906661026	-1.375353067662242	-1.003979311046298	3.864903090662993	0.06745528420257414	0	0	0	1.110566848742133	1.944070795971409	15.48094601992397	15.09191992543058	0.1706371919937501	0.1661095441690826	10.28716802442329	105.8791563056289	0	0	10.29732863989606	-2.97647877098789	-5.739954508765587	11.77055630281096	100.0268743720509	0	0
0.1	1.02046223828484	0.4468288245933025	35.25740241811599	0	0.9399999999999999	0	2.898605136145504	-1.38299815928698	-1.009037895368009	3.886503446226172	0.06783228152675308	0	0	0	2.898605136145504	-1.38299815928698	-1.009037895368009	3.886503446226172	0.06783228152675308	0	0	0	1.110490207500903	1.932470509332255	15.47038442781077	15.10466991415101	0.1341537337126149	0.1729788395978142	10.17944597042987	105.7554160187254	0	0	10.26689813864164	-2.950175774138514	-5.853714556670878	11.7302871530768	100.1692841896511	0	0
0.12	1.018424302457121	0.4353412355921651	35.28198918396109	0	0.9399999999999999	0	3.13892947103908	-1.485660828176293	-1.099423145260425	4.026754646750239	0.07028012675577285	0	0	0	3.13892947103908	-1.485660828176293	-1.099423145260425	4.026754646750239	0.07028012675577285	0	0	0	1.101773480941006	1.914682234786087	15.40597536046601	15.13468908993191	0.111700274911558	0.1995936233196668	10.16379052992295	105.79341490138	0	0	10.27472409949173	-2.940088803646798	-5.905879077356349	11.62024973818289	100.3350508465219	0	0
0.14	1.01217912401669	0.4373338800239948	35.34356781625488	0	0.9399999999999999	0	3.382112716859716	-1.580516730603993	-1.191555820520109	4.118158937416712	0.07187543257835273	0	0	0	3.382112716859716	-1.580516730603993	-1.191555820520109	4.118158937416712	0.07187543257835273	0	0	0	1.09677468733726	1.909276515317158	15.34786188101942	15.15826367659709	0.07515616762172446	0.2210614443139912	10.10131111869335	105.6821603246743	0	0	10.24787491469399	-2.910881490966397	-5.855771541906516	11.6430330104617	100.236979484945	0	0
0.16	2.039329320050424	0.6302238535350589	43.53433587977241	0	0.9399999999999999	0	46.42802471042614	-10.01879284684867	-10.37736554657314	53.90287938750555	0.9407827216173562	0	0	0	46.42802471042614	-10.01879284684867	-10.37736554657314	53.90287938750555	0.9407827216173562	0	0	0	0.4610329498387249	2.283561186643427	7.102085786577423	15.18094246523852	0.08884563610987042	0.3113786517278203	10.03791188550264	105.6317645850486	0	0	10.23576680384908	-2.910569374113796	-5.881155241980309	11.56336476683138	100.3700680824087	0	0
0.18	2.034305458611146	0.627250515648441	43.51687987453597	0	0.9399999999999999	0	46.426355293851	-10.01875591871824	-10.37667391661268	53.90382040484343	0.9407991454682206	0	0	0	46.426355293851	-10.01875591871824	-10.37667391661268	53.90382040484343	0.9407991454682206	0	0	0	0.4566589408978041	2.281943528213815	7.089498396517966	15.18947438033705	0.105518993415251	0.3280002637387691	9.963616056512311	105.5890764427137	0	0	10.20315353127489	-2.908244213048223	-5.856959583922196	11.53189878900123	100.3587611531608	0	0
0.2	2.021308721912884	0.5939904861754803	43.514354279716	0	0.9399999999999999	0	46.425221708489	-10.01870759794661	-10.37603354814276	53.90441303151883	0.9408094887549414	0	0	0	46.425221708489	-10.01870759794661	-10.37603354814276	53.90441303151883	0.9408094887549414	0	0	0	0.4252741297324639	2.264845560267287	7.075330473363164	15.23468568754489	0.1331426806273986	0.4074405531207928	9.974024926553506	105.5826794155523	0	0	10.22563318716029	-2.916719094501635	-5.828984184559853	11.58190799034394	100.3044696439843	0	0
0.22	2.01465587907095	0.5918490356729246	43.51939983596804	0	0.9399999999999999	0	46.42390784614047	-10.01867678851426	-10.37547550010878	53.90515020779895	0.9408223549081972	0	0	0	46.42390784614047	-10.01867678851426	-10.37547550010878	53.90515020779895	0.9408223549081972	0	0	0	0.4202290876239068	2.265179574166725	7.045661535037921	15.23054819257619	0.1183906741633574	0.445437011103593	9.937949193707759	105.7569680348229	0	0	10.23728121684303	-2.891624249899219	-5.887383133519796	11.50433854806708	100.1488688635902	0	0
